# Blender 4.4.0
# www.blender.org
mtllib cuba_cars.mtl
o Cube
v 0.328972 -0.338748 0.925376
v 0.328972 0.338748 0.925376
v 0.504051 -0.338052 0.758075
v 0.504051 0.338748 0.758075
v 0.000000 -0.338748 0.758075
v 0.000000 0.413967 0.758075
v 0.000000 -0.366825 0.925376
v 0.000000 0.384042 0.925376
v 0.532054 0.339079 0.637384
v 0.094887 0.505088 -0.124092
v 0.000000 0.520447 -0.228692
v 0.095369 0.468234 0.429370
v 0.000000 0.501163 0.431373
v 0.094887 0.504976 -0.122906
v 0.000000 0.524650 -0.124036
v 0.231534 -0.304548 0.986831
v 0.231534 0.304548 0.986831
v 0.000000 -0.332625 0.986831
v 0.000000 0.333982 0.986831
v 0.532054 -0.337356 0.637384
v 0.094887 -0.337356 -0.123499
v 0.000000 -0.337356 -0.228692
v 0.095369 -0.337356 0.429370
v 0.000000 -0.337356 0.431373
v 0.000000 -0.337356 -0.124036
v 0.612334 0.338748 0.760313
v 0.612815 0.338748 0.552299
v 0.612334 0.364176 0.109203
v 0.612334 -0.337356 0.760313
v 0.612815 -0.337356 0.552299
v 0.612334 -0.337356 -0.000570
v 0.764262 0.282243 0.934757
v 0.722431 0.338748 0.726723
v 0.721950 0.345999 0.174447
v 0.721950 -0.337356 0.876961
v 0.722431 -0.337356 0.726723
v 0.721950 -0.337356 0.173854
v 0.903759 0.282243 0.934848
v 0.941424 0.338748 0.726855
v 0.940943 0.342206 0.174579
v 0.940943 -0.337356 0.877093
v 0.941424 -0.337356 0.726855
v 0.940943 -0.337356 0.173986
v 0.844859 -0.336591 -1.031099
v 1.063852 -0.336591 -1.030967
v 0.832330 0.388217 -1.016170
v 1.063852 0.339513 -1.030374
v 0.854978 -0.336295 -2.003728
v 1.073971 -0.336295 -2.003596
v 0.842027 0.388316 -1.931711
v 1.073971 0.339809 -2.003003
v 0.670160 -0.334126 -2.776224
v 0.889153 -0.333876 -2.775421
v 0.660052 0.350415 -2.674874
v 0.889153 0.328482 -2.784270
v 0.505018 -0.334271 -3.573752
v 0.724011 -0.335215 -3.568315
v 0.505018 0.335505 -3.640698
v 0.666950 0.320679 -3.649590
v 0.333099 -0.333460 -3.622919
v 0.552092 -0.335075 -3.625115
v 0.333099 0.333947 -3.688526
v 0.609688 0.320354 -3.675866
v 0.333176 -0.334998 -3.730837
v 0.493807 -0.335075 -3.733437
v 0.333176 0.338758 -3.797672
v 0.473585 0.322655 -3.807233
v 0.000000 -0.334495 -3.749042
v 0.000000 -0.334966 -3.833709
v 0.000000 0.337607 -3.818187
v 0.000000 0.322940 -3.898860
v 0.000000 -0.336591 -1.031099
v 0.000000 0.411855 -2.003135
v 0.000000 -0.347799 -2.775554
v 0.000000 -0.332514 -3.569554
v 0.000000 -0.332608 -3.622339
v 0.000000 -0.334341 -3.732489
v 0.000000 -0.333595 -2.003728
v 0.787319 0.438020 -0.241821
v 0.783404 -0.336973 -0.428623
v 1.002398 -0.336973 -0.428491
v 1.002398 0.363099 -0.427898
v 0.000000 0.009859 0.637384
v 0.608542 0.000696 0.760313
v 0.795168 0.057201 0.934759
v 0.963798 0.057201 0.934847
v 1.049349 0.000696 0.726855
v 1.048704 0.000696 0.174282
v 1.193306 0.001461 -1.030671
v 1.206860 0.001757 -2.003299
v 0.979333 0.002000 -2.778165
v 0.697484 0.022323 -3.630260
v 0.587928 0.022330 -3.656829
v 0.234619 0.003322 -3.769887
v 0.427248 0.020992 -3.786987
v 0.000000 0.003411 -3.795906
v 0.000000 0.021457 -3.878719
v 1.131021 0.001079 -0.428194
v 0.480048 0.000000 0.925376
v 0.000000 0.000000 0.925376
v 0.376296 0.000000 0.986831
v 0.000000 0.000000 0.986831
v 0.741989 -0.337231 -0.022603
v 0.960982 -0.337231 -0.022471
v 0.960982 0.361496 -0.021878
v 0.741989 0.374870 0.099072
v 1.075546 0.000825 -0.022174
v 0.000000 0.377660 -3.069189
v 0.000000 0.363949 -3.632219
v 0.000000 0.339839 -3.687340
v 0.000000 0.336747 -3.801130
v 0.422442 0.000000 0.986831
v 0.271366 -0.338748 0.986831
v 0.000000 -0.366825 0.986831
v 0.271366 0.338748 0.986831
v 0.000000 0.384042 0.986831
v 0.000000 0.000000 0.986831
v 0.422442 0.000000 1.068797
v 0.271366 -0.338748 1.068797
v 0.000000 -0.366825 1.068797
v 0.271366 0.338748 1.068797
v 0.000000 0.384042 1.068797
v 0.376296 0.000000 1.068797
v 0.231534 -0.304548 1.068797
v 0.000000 -0.332625 1.068797
v 0.231534 0.304548 1.068797
v 0.000000 0.333982 1.068797
v 0.000000 0.556624 -0.299541
v 0.760805 0.391202 -0.085391
v 1.100749 0.001490 -0.206637
v 0.760805 -0.337114 -0.207065
v 0.979798 -0.337114 -0.206933
v 0.979798 0.371288 -0.206340
v 0.750957 -0.337175 -0.110525
v 0.969950 -0.337175 -0.110393
v 0.969950 0.368098 -0.109800
v 0.750957 0.386004 0.011149
v 1.087559 0.001121 -0.110097
v 0.449778 0.003579 -3.780371
v 0.493807 0.340484 -3.803344
v 0.000000 0.003659 -3.881062
v 0.000000 0.340345 -3.903766
v 0.422079 0.021320 -3.762544
v 0.468416 0.322455 -3.782792
v 0.000000 0.021813 -3.854404
v 0.000000 0.322657 -3.874481
v 0.493807 -0.335075 -3.733437
v 0.000000 -0.334966 -3.833709
v 0.449778 0.003579 -3.780371
v 0.000000 0.003659 -3.881062
v 0.758130 0.003166 -3.607960
v 0.724011 0.339951 -3.629934
v 0.527851 0.003464 -3.671767
v 0.552092 0.338573 -3.693190
v 0.697484 0.022323 -3.630260
v 0.666950 0.320679 -3.649590
v 0.587928 0.022330 -3.656829
v 0.609688 0.320354 -3.675866
v 0.697484 0.021969 -3.676979
v 0.666950 0.321996 -3.751837
v 0.587928 0.022381 -3.703339
v 0.609688 0.321969 -3.777405
v 0.987121 0.337882 -2.365700
v 0.854978 0.339601 -2.003135
v 0.000000 0.411855 -2.003135
v 0.676047 0.649935 -0.655758
v 0.713725 0.707979 -1.031438
v 0.713175 0.658248 -1.882320
v 0.000000 0.793233 -1.894478
v 0.000000 0.774174 -0.610454
v 0.000000 0.811831 -1.031438
v 0.704227 0.555650 -2.286179
v 0.701044 0.656659 -1.956793
v 0.000000 0.647342 -2.247271
v 0.768128 0.327157 -2.365832
v 0.768128 -0.333899 -2.366425
v 0.987121 -0.336067 -2.366293
v 0.000000 -0.340578 -2.366425
v 1.110559 0.001985 -2.365997
v 0.755369 0.000696 0.876961
v 0.721950 0.338748 0.934737
v 1.048704 0.000696 0.877093
v 0.940943 0.338748 0.934869
v 0.795145 0.057195 0.979012
v 0.764239 0.282236 0.979010
v 0.963775 0.057195 0.979100
v 0.903736 0.282236 0.979102
v 0.493807 0.340484 -3.803344
v 0.000000 0.340345 -3.903766
v 0.783404 0.391343 -0.159988
v 0.844859 0.339513 -1.030506
v 0.652108 0.681222 -0.617696
v 0.854978 0.339601 -2.003135
v 0.703225 0.706803 -1.923862
v 0.728500 0.659295 -1.040951
v 0.703225 0.706803 -1.922312
v 0.687875 0.586043 -2.278929
v 0.837638 0.385578 -2.020261
v 0.621427 0.306204 -2.809576
v 0.760935 0.370426 -2.340465
v 0.628746 0.327338 -2.770870
v 0.000000 0.402091 -3.024042
v 0.769532 0.431365 -0.194873
v 0.000000 0.583034 -0.334778
v 0.667605 0.641400 -0.584265
v 0.000000 0.729391 -0.585686
v 0.000000 0.779517 -1.895906
v 0.042281 0.796596 -1.031438
v 0.045729 0.758264 -0.610454
v 0.702628 0.706872 -1.871194
v 0.000000 0.780450 -1.848696
v 0.727142 0.439720 -0.195910
v 0.622510 0.646972 -0.584355
v 0.714103 0.707935 -1.064806
v 0.040062 0.795748 -1.074342
v -0.328972 -0.338748 0.925376
v -0.328972 0.338748 0.925376
v -0.504051 -0.338052 0.758075
v -0.504051 0.338748 0.758075
v -0.532054 0.339079 0.637384
v -0.094887 0.505088 -0.124092
v -0.095369 0.468234 0.429370
v -0.094887 0.504976 -0.122906
v -0.231534 -0.304548 0.986831
v -0.231534 0.304548 0.986831
v -0.532054 -0.337356 0.637384
v -0.094887 -0.337356 -0.123499
v -0.095369 -0.337356 0.429370
v -0.612334 0.338748 0.760313
v -0.612815 0.338748 0.552299
v -0.612334 0.364176 0.109203
v -0.612334 -0.337356 0.760313
v -0.612815 -0.337356 0.552299
v -0.612334 -0.337356 -0.000570
v -0.764262 0.282243 0.934757
v -0.722431 0.338748 0.726723
v -0.721950 0.345999 0.174447
v -0.721950 -0.337356 0.876961
v -0.722431 -0.337356 0.726723
v -0.721950 -0.337356 0.173854
v -0.903759 0.282243 0.934848
v -0.941424 0.338748 0.726855
v -0.940943 0.342206 0.174579
v -0.940943 -0.337356 0.877093
v -0.941424 -0.337356 0.726855
v -0.940943 -0.337356 0.173986
v -0.844859 -0.336591 -1.031099
v -1.063852 -0.336591 -1.030967
v -0.832330 0.388217 -1.016170
v -1.063852 0.339513 -1.030374
v -0.854978 -0.336295 -2.003728
v -1.073971 -0.336295 -2.003596
v -0.842027 0.388316 -1.931711
v -1.073971 0.339809 -2.003003
v -0.670160 -0.334126 -2.776224
v -0.889153 -0.333876 -2.775421
v -0.660052 0.350415 -2.674874
v -0.889153 0.328482 -2.784270
v -0.505018 -0.334271 -3.573752
v -0.724011 -0.335215 -3.568315
v -0.505018 0.335505 -3.640698
v -0.666950 0.320679 -3.649590
v -0.333099 -0.333460 -3.622919
v -0.552092 -0.335075 -3.625115
v -0.333099 0.333947 -3.688526
v -0.609688 0.320354 -3.675866
v -0.333176 -0.334998 -3.730837
v -0.493807 -0.335075 -3.733437
v -0.333176 0.338758 -3.797672
v -0.473585 0.322655 -3.807233
v -0.787319 0.438020 -0.241821
v -0.783404 -0.336973 -0.428623
v -1.002398 -0.336973 -0.428491
v -1.002398 0.363099 -0.427898
v -0.608542 0.000696 0.760313
v -0.795168 0.057201 0.934759
v -0.963798 0.057201 0.934847
v -1.049349 0.000696 0.726855
v -1.048704 0.000696 0.174282
v -1.193306 0.001461 -1.030671
v -1.206860 0.001757 -2.003299
v -0.979333 0.002000 -2.778165
v -0.697484 0.022323 -3.630260
v -0.587928 0.022330 -3.656829
v -0.234619 0.003322 -3.769887
v -0.427248 0.020992 -3.786987
v -1.131021 0.001079 -0.428194
v -0.480048 0.000000 0.925376
v -0.376296 0.000000 0.986831
v -0.741989 -0.337231 -0.022603
v -0.960982 -0.337231 -0.022471
v -0.960982 0.361496 -0.021878
v -0.741989 0.374870 0.099072
v -1.075546 0.000825 -0.022174
v -0.422442 0.000000 0.986831
v -0.271366 -0.338748 0.986831
v -0.271366 0.338748 0.986831
v -0.422442 0.000000 1.068797
v -0.271366 -0.338748 1.068797
v -0.271366 0.338748 1.068797
v -0.376296 0.000000 1.068797
v -0.231534 -0.304548 1.068797
v -0.231534 0.304548 1.068797
v -0.760805 0.391202 -0.085391
v -1.100749 0.001490 -0.206637
v -0.760805 -0.337114 -0.207065
v -0.979798 -0.337114 -0.206933
v -0.979798 0.371288 -0.206340
v -0.750957 -0.337175 -0.110525
v -0.969950 -0.337175 -0.110393
v -0.969950 0.368098 -0.109800
v -0.750957 0.386004 0.011149
v -1.087559 0.001121 -0.110097
v -0.449778 0.003579 -3.780371
v -0.493807 0.340484 -3.803344
v -0.422079 0.021320 -3.762544
v -0.468416 0.322455 -3.782792
v -0.493807 -0.335075 -3.733437
v -0.449778 0.003579 -3.780371
v -0.758130 0.003166 -3.607960
v -0.724011 0.339951 -3.629934
v -0.527851 0.003464 -3.671767
v -0.552092 0.338573 -3.693190
v -0.697484 0.022323 -3.630260
v -0.666950 0.320679 -3.649590
v -0.587928 0.022330 -3.656829
v -0.609688 0.320354 -3.675866
v -0.697484 0.021969 -3.676979
v -0.666950 0.321996 -3.751837
v -0.587928 0.022381 -3.703339
v -0.609688 0.321969 -3.777405
v -0.987121 0.337882 -2.365700
v -0.854978 0.339601 -2.003135
v -0.676047 0.649935 -0.655758
v -0.713725 0.707979 -1.031438
v -0.713175 0.658248 -1.882320
v -0.704227 0.555650 -2.286179
v -0.701044 0.656659 -1.956793
v -0.768128 0.327157 -2.365832
v -0.768128 -0.333899 -2.366425
v -0.987121 -0.336067 -2.366293
v -1.110559 0.001985 -2.365997
v -0.755369 0.000696 0.876961
v -0.721950 0.338748 0.934737
v -1.048704 0.000696 0.877093
v -0.940943 0.338748 0.934869
v -0.795145 0.057195 0.979012
v -0.764239 0.282236 0.979010
v -0.963775 0.057195 0.979100
v -0.903736 0.282236 0.979102
v -0.493807 0.340484 -3.803344
v -0.783404 0.391343 -0.159988
v -0.844859 0.339513 -1.030506
v -0.652108 0.681222 -0.617696
v -0.854978 0.339601 -2.003135
v -0.703225 0.706803 -1.923862
v -0.728500 0.659295 -1.040951
v -0.703225 0.706803 -1.922312
v -0.687875 0.586043 -2.278929
v -0.837638 0.385578 -2.020261
v -0.621427 0.306204 -2.809576
v -0.760935 0.370426 -2.340465
v -0.628746 0.327338 -2.770870
v -0.769532 0.431365 -0.194873
v -0.667605 0.641400 -0.584265
v -0.042281 0.796596 -1.031438
v -0.045729 0.758264 -0.610454
v -0.702628 0.706872 -1.871194
v -0.727142 0.439720 -0.195910
v -0.622510 0.646972 -0.584355
v -0.714103 0.707935 -1.064806
v -0.040062 0.795748 -1.074342
vn -0.0000 -0.0000 -1.0000
vn 0.8595 -0.0000 0.5112
vn 0.0344 -0.9971 -0.0677
vn 0.6938 0.3094 0.6503
vn 0.1413 0.9767 0.1613
vn 0.1934 0.9652 0.1761
vn 0.2663 0.9625 0.0522
vn 0.2017 0.9787 -0.0378
vn -0.0000 -0.0000 1.0000
vn 0.1488 0.9864 0.0698
vn 0.0930 -0.9947 0.0436
vn -1.0000 -0.0000 -0.0000
vn 0.7416 -0.0002 -0.6709
vn 0.4524 -0.0000 -0.8918
vn -0.0088 -0.0003 1.0000
vn -0.0000 -1.0000 -0.0000
vn 0.0210 -0.0000 0.9998
vn 0.0015 -1.0000 -0.0042
vn -0.6726 0.0295 0.7394
vn 0.1539 0.9778 0.1422
vn 0.2328 0.9707 0.0604
vn -0.3279 -0.2564 0.9092
vn 0.3319 0.0673 -0.9409
vn -0.0005 0.0001 1.0000
vn 0.0470 0.9984 0.0327
vn 0.7388 0.0535 -0.6718
vn -0.0000 1.0000 -0.0000
vn 0.9527 -0.3039 -0.0010
vn 0.9527 -0.3039 0.0036
vn 0.0087 0.9999 0.0097
vn 0.9322 -0.3617 0.0112
vn -0.0000 -1.0000 -0.0006
vn 0.9300 -0.3551 0.0953
vn 0.0349 0.9982 -0.0482
vn -0.0668 0.9976 -0.0162
vn -0.0000 -1.0000 -0.0003
vn -0.0005 1.0000 0.0002
vn 0.9208 -0.2928 -0.2577
vn -0.0044 -1.0000 -0.0014
vn 0.2848 -0.1253 -0.9503
vn 0.9550 -0.1904 -0.2274
vn -0.0016 -1.0000 0.0013
vn -0.0573 0.9978 0.0339
vn -0.0158 0.9993 0.0348
vn -0.0059 -0.9999 0.0102
vn -0.0212 0.9990 0.0393
vn 0.8466 0.0118 -0.5321
vn -0.0043 -1.0000 0.0083
vn -0.0013 -1.0000 0.0039
vn -0.0069 0.9993 0.0367
vn -0.0815 0.0862 0.9929
vn -0.0023 -0.9999 0.0150
vn 0.0031 1.0000 0.0018
vn 0.0101 -0.9999 -0.0106
vn -0.0016 -1.0000 -0.0017
vn 0.0988 0.9950 -0.0120
vn 0.9323 -0.3440 0.1115
vn 0.0001 -1.0000 -0.0008
vn 0.0142 -0.9999 0.0074
vn 0.9412 0.3209 0.1061
vn -0.0770 0.1146 0.9904
vn 0.8420 -0.1203 -0.5259
vn 0.0041 0.9999 -0.0136
vn 0.9604 0.1707 -0.2202
vn 0.9204 0.2946 -0.2572
vn 0.9345 0.3444 0.0893
vn 0.9322 0.3617 0.0115
vn 0.9528 0.3037 0.0030
vn 0.9531 0.3025 -0.0000
vn -0.0000 1.0000 0.0001
vn -0.3216 0.2583 0.9110
vn -0.7474 -0.0890 0.6584
vn 0.6938 -0.3094 0.6503
vn 0.9456 0.2993 0.1276
vn 0.9439 -0.3105 0.1124
vn 0.0898 0.9783 0.1866
vn 0.0003 -1.0000 -0.0007
vn 0.0009 -1.0000 -0.0005
vn 0.0058 1.0000 0.0077
vn 0.0357 0.9541 -0.2974
vn 0.0875 0.9962 0.0038
vn -0.0065 0.9987 0.0503
vn 0.0020 1.0000 -0.0093
vn -0.9032 0.4293 -0.0000
vn 0.9133 0.4073 -0.0000
vn 0.1646 0.9864 -0.0000
vn 0.9133 -0.4073 -0.0000
vn -0.9032 -0.4293 -0.0000
vn -0.1204 0.9927 -0.0000
vn 0.1029 -0.9947 -0.0000
vn -0.1261 -0.9920 -0.0000
vn 0.0025 -1.0000 0.0060
vn -0.0049 -1.0000 -0.0024
vn 0.9447 0.3058 0.1184
vn 0.9373 -0.3304 0.1111
vn 0.1160 0.9917 0.0549
vn 0.1327 0.9847 0.1129
vn 0.9399 -0.3227 0.1115
vn 0.9453 0.3015 0.1246
vn 0.1348 0.9562 0.2597
vn 0.1668 0.9855 0.0302
vn 0.0792 0.9434 0.3220
vn -0.0503 0.9371 0.3456
vn 0.2384 -0.0991 -0.9661
vn 1.0000 -0.0000 -0.0000
vn 0.1928 -0.1387 -0.9714
vn 0.2143 0.0186 -0.9766
vn 0.2012 -0.0809 -0.9762
vn 0.0014 -1.0000 -0.0097
vn -0.9693 0.1352 -0.2053
vn 0.2067 -0.1217 -0.9708
vn 0.3357 -0.0271 -0.9416
vn 0.2640 -0.0806 -0.9612
vn 0.3627 0.0630 -0.9298
vn 0.2526 -0.1803 -0.9506
vn -0.0096 0.9999 0.0144
vn 0.2890 -0.2268 -0.9301
vn 0.9948 0.1016 0.0007
vn -0.0027 -1.0000 0.0033
vn -0.9973 0.0728 0.0008
vn 0.0871 0.6152 0.7835
vn 0.2923 0.8293 -0.4762
vn 0.3324 0.9394 0.0834
vn 0.5856 0.8100 -0.0311
vn 0.9186 0.3952 -0.0032
vn -0.0078 -0.2469 0.9690
vn 0.0072 0.2471 -0.9690
vn 0.9095 0.3461 -0.2304
vn 0.9101 -0.3448 -0.2300
vn -0.0249 0.9996 -0.0138
vn 0.8883 0.3567 -0.2893
vn 0.8892 0.4222 -0.1761
vn -0.5694 -0.1480 0.8086
vn 0.4272 0.0346 0.9035
vn -0.0006 -0.0000 1.0000
vn -0.0003 -0.7150 0.6991
vn -0.0006 -0.0001 1.0000
vn -0.9907 -0.1361 -0.0005
vn -0.0000 -1.0000 -0.0001
vn 0.9662 0.2578 0.0005
vn 0.8908 0.4505 0.0592
vn 0.9900 0.1291 0.0561
vn 0.9696 0.2446 0.0102
vn 0.6478 0.7243 0.2363
vn 0.9167 0.3989 0.0238
vn 0.9218 0.3583 0.1478
vn 0.9691 0.2461 -0.0148
vn 0.8226 0.4502 -0.3475
vn 0.9243 0.2280 -0.3061
vn 0.7696 0.5218 -0.3680
vn 0.9724 0.2163 -0.0872
vn 0.9316 0.2777 -0.2343
vn 0.0839 0.9322 -0.3522
vn 0.0120 0.6922 0.7216
vn 0.1356 0.8876 0.4402
vn 0.1286 0.9880 0.0860
vn 0.1032 0.9946 -0.0094
vn 0.1570 0.9153 -0.3709
vn 0.1163 0.9931 -0.0141
vn 0.0980 0.8776 0.4693
vn 0.1301 0.9914 -0.0147
vn -0.8595 -0.0000 0.5112
vn -0.0344 -0.9971 -0.0677
vn -0.6938 0.3094 0.6503
vn -0.1413 0.9767 0.1613
vn -0.1934 0.9652 0.1761
vn -0.2663 0.9625 0.0522
vn -0.2017 0.9787 -0.0378
vn -0.1488 0.9864 0.0698
vn -0.0930 -0.9947 0.0436
vn -0.7416 -0.0002 -0.6709
vn -0.4524 -0.0000 -0.8918
vn 0.0088 -0.0003 1.0000
vn -0.0210 -0.0000 0.9998
vn -0.0015 -1.0000 -0.0042
vn 0.6726 0.0295 0.7394
vn -0.1539 0.9778 0.1422
vn -0.2328 0.9707 0.0604
vn 0.3279 -0.2564 0.9092
vn -0.3319 0.0673 -0.9409
vn 0.0005 0.0001 1.0000
vn -0.0470 0.9984 0.0327
vn -0.7388 0.0535 -0.6718
vn -0.9527 -0.3039 -0.0010
vn -0.9527 -0.3039 0.0036
vn -0.0087 0.9999 0.0097
vn -0.9322 -0.3617 0.0112
vn -0.9300 -0.3551 0.0953
vn -0.0349 0.9982 -0.0482
vn 0.0668 0.9976 -0.0162
vn 0.0005 1.0000 0.0002
vn -0.9208 -0.2928 -0.2577
vn 0.0044 -1.0000 -0.0014
vn -0.2848 -0.1253 -0.9503
vn -0.9550 -0.1904 -0.2274
vn 0.0016 -1.0000 0.0013
vn 0.0573 0.9978 0.0339
vn 0.0158 0.9993 0.0348
vn 0.0059 -0.9999 0.0102
vn 0.0212 0.9990 0.0393
vn -0.8466 0.0118 -0.5321
vn 0.0043 -1.0000 0.0083
vn 0.0013 -1.0000 0.0039
vn 0.0069 0.9993 0.0367
vn 0.0815 0.0862 0.9929
vn 0.0023 -0.9999 0.0150
vn -0.0031 1.0000 0.0018
vn -0.0101 -0.9999 -0.0106
vn 0.0016 -1.0000 -0.0017
vn -0.0988 0.9950 -0.0120
vn -0.9323 -0.3440 0.1115
vn -0.0001 -1.0000 -0.0008
vn -0.0142 -0.9999 0.0074
vn -0.9412 0.3209 0.1061
vn 0.0770 0.1146 0.9904
vn -0.8420 -0.1203 -0.5259
vn -0.0041 0.9999 -0.0136
vn -0.9604 0.1707 -0.2202
vn -0.9204 0.2946 -0.2572
vn -0.9345 0.3444 0.0893
vn -0.9322 0.3617 0.0115
vn -0.9528 0.3037 0.0030
vn -0.9531 0.3025 -0.0000
vn 0.3216 0.2583 0.9110
vn 0.7474 -0.0890 0.6584
vn -0.6938 -0.3094 0.6503
vn -0.9456 0.2993 0.1276
vn -0.9439 -0.3105 0.1124
vn -0.0898 0.9783 0.1866
vn -0.0003 -1.0000 -0.0007
vn -0.0009 -1.0000 -0.0005
vn -0.0058 1.0000 0.0077
vn -0.0357 0.9541 -0.2974
vn -0.0875 0.9962 0.0038
vn 0.0065 0.9987 0.0503
vn -0.0020 1.0000 -0.0093
vn 0.9032 0.4293 -0.0000
vn -0.9133 0.4073 -0.0000
vn -0.1646 0.9864 -0.0000
vn -0.9133 -0.4073 -0.0000
vn 0.9032 -0.4293 -0.0000
vn 0.1204 0.9927 -0.0000
vn -0.1029 -0.9947 -0.0000
vn 0.1261 -0.9920 -0.0000
vn -0.0025 -1.0000 0.0060
vn 0.0049 -1.0000 -0.0024
vn -0.9447 0.3058 0.1184
vn -0.9373 -0.3304 0.1111
vn -0.1160 0.9917 0.0549
vn -0.1327 0.9847 0.1129
vn -0.9399 -0.3227 0.1115
vn -0.9453 0.3015 0.1246
vn -0.1348 0.9562 0.2597
vn -0.1668 0.9855 0.0302
vn -0.0792 0.9434 0.3220
vn 0.0503 0.9371 0.3456
vn -0.2384 -0.0991 -0.9661
vn -0.1928 -0.1387 -0.9714
vn -0.2143 0.0186 -0.9766
vn -0.2012 -0.0809 -0.9762
vn -0.0014 -1.0000 -0.0097
vn 0.9693 0.1352 -0.2053
vn -0.2067 -0.1217 -0.9708
vn -0.3357 -0.0271 -0.9416
vn -0.2640 -0.0806 -0.9612
vn -0.3627 0.0630 -0.9298
vn -0.2526 -0.1803 -0.9506
vn 0.0096 0.9999 0.0144
vn -0.2890 -0.2268 -0.9301
vn -0.9948 0.1016 0.0007
vn 0.0027 -1.0000 0.0033
vn 0.9973 0.0728 0.0008
vn -0.0871 0.6152 0.7835
vn -0.2923 0.8293 -0.4762
vn -0.3324 0.9394 0.0834
vn -0.5856 0.8100 -0.0311
vn -0.9186 0.3952 -0.0032
vn 0.0078 -0.2469 0.9690
vn -0.0072 0.2471 -0.9690
vn -0.9095 0.3461 -0.2304
vn -0.9101 -0.3448 -0.2300
vn 0.0249 0.9996 -0.0138
vn -0.8883 0.3567 -0.2893
vn -0.8892 0.4222 -0.1761
vn 0.5694 -0.1480 0.8086
vn -0.4272 0.0346 0.9035
vn 0.0006 -0.0000 1.0000
vn 0.0003 -0.7150 0.6991
vn 0.0006 -0.0001 1.0000
vn 0.9907 -0.1361 -0.0005
vn -0.9662 0.2578 0.0005
vn -0.8908 0.4505 0.0592
vn -0.9900 0.1291 0.0561
vn -0.9696 0.2446 0.0102
vn -0.6478 0.7243 0.2363
vn -0.9167 0.3989 0.0238
vn -0.9218 0.3583 0.1478
vn -0.9691 0.2461 -0.0148
vn -0.8226 0.4502 -0.3475
vn -0.9243 0.2280 -0.3061
vn -0.7696 0.5218 -0.3680
vn -0.9724 0.2163 -0.0872
vn -0.9316 0.2777 -0.2343
vn -0.0839 0.9322 -0.3522
vn -0.0120 0.6922 0.7216
vn -0.1356 0.8876 0.4402
vn -0.1286 0.9880 0.0860
vn -0.1032 0.9946 -0.0094
vn -0.1570 0.9153 -0.3709
vn -0.1163 0.9931 -0.0141
vn -0.0980 0.8776 0.4693
vn -0.1301 0.9914 -0.0147
vt 0.375000 0.375000
vt 0.625000 0.375000
vt 0.625000 0.500000
vt 0.375000 0.500000
vt 0.625000 0.750000
vt 0.500000 0.750000
vt 0.375000 0.750000
vt 0.250000 0.500000
vt 0.250000 0.750000
vt 0.750000 0.500000
vt 0.750000 0.750000
vt 0.000000 0.000000
vt 0.095425 0.877684
vt 0.114873 0.880184
vt 0.114873 0.912120
vt 0.095425 0.914649
vt 0.080278 0.560010
vt 0.094781 0.553102
vt 0.097447 0.549019
vt 0.097463 0.555927
vt 0.080262 0.578351
vt 0.097447 0.574269
vt 0.101104 0.550135
vt 0.101088 0.568476
vt 0.101088 0.543226
vt 0.078085 0.647092
vt 0.073008 0.647092
vt 0.073008 0.634669
vt 0.078088 0.634669
vt 0.071097 0.647092
vt 0.071097 0.634669
vt 0.108377 0.550130
vt 0.108361 0.568472
vt 0.108361 0.543222
vt 0.089155 0.647120
vt 0.089158 0.634697
vt 0.098094 0.634708
vt 0.098091 0.647131
vt 0.083620 0.647106
vt 0.083623 0.634683
vt 0.103129 0.583604
vt 0.110402 0.588480
vt 0.112443 0.608489
vt 0.105170 0.608494
vt 0.102621 0.652841
vt 0.109894 0.652836
vt 0.106641 0.666737
vt 0.097749 0.666976
vt 0.112779 0.640791
vt 0.105506 0.640795
vt 0.101423 0.647139
vt 0.101426 0.634717
vt 0.105185 0.634797
vt 0.105210 0.647140
vt 0.014258 0.625139
vt 0.015768 0.565228
vt 0.023377 0.565253
vt 0.024450 0.625192
vt 0.112469 0.634748
vt 0.112833 0.647183
vt 0.101156 0.694822
vt 0.093883 0.695180
vt 0.088174 0.696768
vt 0.095447 0.696923
vt 0.093511 0.700581
vt 0.088176 0.700393
vt 0.025957 0.565253
vt 0.027906 0.625212
vt 0.077111 0.703917
vt 0.077111 0.701074
vt 0.102378 0.581127
vt 0.109651 0.581122
vt 0.081585 0.647101
vt 0.081587 0.634678
vt 0.113668 0.581132
vt 0.114673 0.588490
vt 0.023377 0.684524
vt 0.025957 0.684862
vt 0.109636 0.666535
vt 0.102289 0.694093
vt 0.113994 0.652846
vt 0.116742 0.608499
vt 0.117192 0.640801
vt 0.111939 0.543222
vt 0.111961 0.550130
vt 0.111939 0.568482
vt 0.075976 0.880184
vt 0.075976 0.912120
vt 0.112831 0.575006
vt 0.109026 0.574996
vt 0.079893 0.634674
vt 0.079890 0.647097
vt 0.101753 0.575001
vt 0.077111 0.700508
vt 0.077111 0.696729
vt 0.077111 0.694898
vt 0.077111 0.666682
vt 0.500000 0.763655
vt 0.380225 0.770270
vt 0.380225 0.854781
vt 0.500000 0.861474
vt 0.500000 0.875000
vt 0.375000 0.875000
vt 0.625000 0.875000
vt 0.619775 0.854781
vt 0.619775 0.770270
vt 0.109324 0.577916
vt 0.113230 0.577926
vt 0.080698 0.647099
vt 0.080700 0.634676
vt 0.102051 0.577921
vt 0.115378 0.598097
vt 0.075327 0.653766
vt 0.074253 0.637823
vt 0.113504 0.586622
vt 0.080262 0.578391
vt 0.077111 0.581865
vt 0.028903 0.628295
vt 0.026852 0.681706
vt 0.047815 0.681756
vt 0.047815 0.684838
vt 0.047815 0.628378
vt 0.047815 0.625226
vt 0.047815 0.565272
vt 0.225247 0.602066
vt 0.224359 0.567154
vt 0.227546 0.567202
vt 0.226913 0.602063
vt 0.028231 0.557380
vt 0.036513 0.557314
vt 0.037073 0.557309
vt 0.036883 0.558610
vt 0.028799 0.558610
vt 0.028231 0.558610
vt 0.018485 0.664360
vt 0.018499 0.653433
vt 0.057920 0.653199
vt 0.057954 0.666238
vt 0.028756 0.588531
vt 0.028231 0.588531
vt 0.028753 0.590662
vt 0.028698 0.629119
vt 0.028695 0.631464
vt 0.028231 0.631393
vt 0.466551 0.157333
vt 0.468020 0.114539
vt 0.477920 0.114539
vt 0.473182 0.157333
vt 0.030404 0.587794
vt 0.012333 0.587770
vt 0.010069 0.582363
vt 0.030800 0.582405
vt 0.055730 0.587805
vt 0.057706 0.582415
vt 0.015413 0.611884
vt 0.014160 0.616016
vt 0.013436 0.610057
vt 0.010697 0.587531
vt 0.054364 0.617673
vt 0.055513 0.623046
vt 0.031089 0.617789
vt 0.030826 0.623176
vt 0.054056 0.623054
vt 0.031749 0.623171
vt 0.014175 0.602003
vt 0.011047 0.657155
vt 0.009369 0.663234
vt 0.013074 0.595909
vt 0.043033 0.597892
vt 0.028685 0.600365
vt 0.029699 0.593628
vt 0.049208 0.589786
vt 0.025948 0.636317
vt 0.047433 0.593661
vt 0.025715 0.641093
vt 0.028231 0.648914
vt 0.028231 0.551265
vt 0.037958 0.551265
vt 0.037793 0.552393
vt 0.037266 0.552398
vt 0.028231 0.552480
vt 0.043575 0.589717
vt 0.048081 0.582742
vt 0.046908 0.692489
vt 0.042336 0.697111
vt 0.054262 0.643488
vt 0.054301 0.657102
vt 0.007057 0.649876
vt 0.007074 0.637672
vt 0.028231 0.673258
vt 0.037267 0.574704
vt 0.037796 0.579331
vt 0.016005 0.635379
vt 0.015237 0.630020
s 0
usemtl Material.001
f 5/1/1 6/2/1 4/3/1 3/4/1
f 3/4/2 4/3/2 2/5/2 99/6/2 1/7/2
f 5/8/3 3/4/3 1/7/3 7/9/3
f 99/6/4 2/5/4 115/5/4 112/6/4
f 4/3/5 6/10/5 8/11/5 2/5/5
f 13/12/6 6/12/6 4/12/6 9/12/6 12/12/6
f 15/12/7 13/12/7 12/12/7 14/12/7
f 11/12/8 15/12/8 14/12/8 10/12/8
f 101/13/9 17/14/9 19/15/9 102/16/9
f 2/5/10 8/11/10 116/11/10 115/5/10
f 7/9/11 1/7/11 113/7/11 114/9/11
f 100/12/12 7/12/12 114/12/12 117/12/12
f 11/12/13 10/12/13 21/12/13 22/12/13
f 9/12/14 4/12/14 3/12/14 20/12/14 83/12/14
f 14/12/15 15/12/15 25/12/15 21/12/15
f 20/12/16 23/12/16 30/12/16 29/12/16
f 12/12/17 13/12/17 24/12/17 23/12/17
f 23/12/16 21/12/16 31/12/16 30/12/16
f 25/12/16 22/12/16 21/12/16
f 24/12/16 25/12/16 21/12/16 23/12/16
f 20/12/18 3/12/18 5/12/18 24/12/18 23/12/18
f 84/12/19 29/12/19 35/12/19 180/12/19
f 30/12/16 31/12/16 37/12/16 36/12/16
f 12/17/20 9/18/20 26/19/20 27/20/20
f 14/21/21 12/17/21 27/20/21 28/22/21
f 83/12/22 20/12/22 29/12/22 84/12/22
f 21/12/23 14/12/23 28/12/23 31/12/23
f 180/12/24 35/12/24 41/12/24 182/12/24
f 36/12/16 37/12/16 43/12/16 42/12/16
f 28/22/25 27/20/25 33/23/25 34/24/25
f 31/12/26 28/12/26 34/12/26 37/12/26
f 29/12/16 30/12/16 36/12/16 35/12/16
f 27/20/27 26/19/27 181/25/27 33/23/27
f 88/26/28 87/27/28 42/28/28 43/29/28
f 87/27/29 182/30/29 41/31/29 42/28/29
f 34/24/30 33/23/30 39/32/30 40/33/30
f 35/12/16 36/12/16 42/12/16 41/12/16
f 33/23/27 181/25/27 183/34/27 39/32/27
f 89/35/31 45/36/31 49/37/31 90/38/31
f 81/12/32 80/12/32 44/12/32 45/12/32
f 98/39/33 81/40/33 45/36/33 89/35/33
f 190/41/34 82/42/34 47/43/34 191/44/34
f 175/45/35 163/46/35 55/47/35 199/48/35
f 45/12/36 44/12/36 48/12/36 49/12/36
f 191/44/37 47/43/37 51/49/37 193/50/37
f 179/51/38 177/52/38 53/53/38 91/54/38
f 177/12/39 176/12/39 52/12/39 53/12/39
f 151/55/40 57/56/40 61/57/40 153/58/40
f 91/54/41 53/53/41 57/59/41 151/60/41
f 53/12/42 52/12/42 56/12/42 57/12/42
f 199/48/43 55/47/43 152/61/43 58/62/43
f 62/63/44 154/64/44 140/65/44 66/66/44
f 57/12/45 56/12/45 60/12/45 61/12/45
f 58/62/46 152/61/46 154/64/46 62/63/46
f 69/12/27 141/12/27 150/12/27 148/12/27
f 153/58/47 61/57/47 65/67/47 139/68/47
f 61/12/48 60/12/48 64/12/48 65/12/48
f 96/12/12 70/12/12 142/12/12 141/12/12
f 65/12/49 64/12/49 68/12/49 69/12/49
f 66/66/50 140/65/50 142/69/50 70/70/50
f 94/12/51 66/12/51 70/12/51 96/12/51
f 64/12/52 60/12/52 76/12/52 77/12/52
f 56/12/53 60/12/53 76/12/53 75/12/53
f 56/12/54 52/12/54 74/12/54 75/12/54
f 48/12/55 44/12/55 72/12/55 78/12/55
f 129/71/56 133/72/56 82/42/56 190/41/56
f 130/73/57 132/74/57 81/40/57 98/39/57
f 132/12/32 131/12/32 80/12/32 81/12/32
f 44/12/58 80/12/58 22/12/58 72/12/58
f 176/12/59 178/12/59 74/12/59 52/12/59
f 133/72/60 130/75/60 98/76/60 82/42/60
f 64/12/61 94/12/61 96/12/61 68/12/61
f 68/12/12 96/12/12 141/12/12 69/12/12
f 154/77/62 153/58/62 139/68/62 140/78/62
f 95/12/63 97/12/63 145/12/63 143/12/63
f 55/47/64 91/79/64 151/80/64 152/61/64
f 93/12/27 63/12/27 158/12/27 157/12/27
f 163/46/65 179/81/65 91/79/65 55/47/65
f 82/42/66 98/76/66 89/82/66 47/43/66
f 47/43/67 89/82/67 90/83/67 51/49/67
f 39/32/68 183/34/68 182/84/68 87/85/68
f 40/33/69 39/32/69 87/85/69 88/86/69
f 38/12/70 32/12/70 185/12/70 187/12/70
f 9/12/71 83/12/71 84/12/71 26/12/71
f 26/12/72 84/12/72 180/12/72 181/12/72
f 8/12/12 100/12/12 117/12/12 116/12/12
f 16/87/9 101/13/9 102/16/9 18/88/9
f 1/7/73 99/6/73 112/6/73 113/7/73
f 40/33/74 88/86/74 107/89/74 105/90/74
f 43/12/32 37/12/32 103/12/32 104/12/32
f 88/26/75 43/29/75 104/91/75 107/92/75
f 34/24/76 40/33/76 105/90/76 106/93/76
f 31/12/77 21/12/77 22/12/77 80/12/77 131/12/77 134/12/77 103/12/77
f 31/12/78 103/12/78 37/12/78
f 62/63/79 66/66/79 111/94/79 110/95/79
f 58/62/80 62/63/80 110/95/80 109/96/80
f 199/48/81 58/62/81 109/96/81 108/97/81
f 111/94/82 66/66/82 70/70/82
f 77/12/83 64/12/83 68/12/83
f 101/98/84 16/99/84 124/99/84 123/98/84
f 112/6/85 115/5/85 121/5/85 118/6/85
f 115/5/86 116/11/86 122/11/86 121/5/86
f 18/100/27 102/101/27 117/102/27 114/103/27
f 116/104/12 19/105/12 127/105/12 122/104/12
f 102/101/27 19/105/27 116/104/27 117/102/27
f 123/98/9 124/99/9 119/7/9 118/6/9
f 124/99/9 125/100/9 120/103/9 119/7/9
f 127/105/9 126/106/9 121/5/9 122/104/9
f 126/106/9 123/98/9 118/6/9 121/5/9
f 113/7/87 112/6/87 118/6/87 119/7/87
f 17/106/88 101/98/88 123/98/88 126/106/88
f 16/99/89 18/100/89 125/100/89 124/99/89
f 18/100/12 114/103/12 120/103/12 125/100/12
f 114/9/90 113/7/90 119/7/90 120/9/90
f 19/105/91 17/106/91 126/106/91 127/105/91
f 48/12/92 78/12/92 178/12/92 176/12/92
f 49/12/93 48/12/93 176/12/93 177/12/93
f 136/107/94 138/108/94 130/75/94 133/72/94
f 135/12/32 134/12/32 131/12/32 132/12/32
f 138/109/95 135/110/95 132/74/95 130/73/95
f 137/111/96 136/107/96 133/72/96 129/71/96
f 106/93/97 105/90/97 136/107/97 137/111/97
f 107/92/98 104/91/98 135/110/98 138/109/98
f 104/12/32 103/12/32 134/12/32 135/12/32
f 105/90/99 107/89/99 138/108/99 136/107/99
f 190/112/100 128/113/100 11/114/100 129/115/100
f 10/116/101 137/111/101 129/71/101 11/117/101
f 137/111/102 14/21/102 28/22/102 106/93/102
f 34/24/103 106/93/103 28/22/103
f 95/118/104 67/119/104 140/78/104 139/68/104
f 71/12/105 97/12/105 141/12/105 142/12/105
f 67/119/106 71/120/106 142/121/106 140/78/106
f 97/122/107 95/118/107 139/68/107 141/123/107
f 144/12/108 143/12/108 145/12/108 146/12/108
f 97/12/105 71/12/105 146/12/105 145/12/105
f 71/12/109 67/12/109 144/12/109 146/12/109
f 67/12/110 95/12/110 143/12/110 144/12/110
f 149/68/111 147/67/111 148/124/111 150/123/111
f 139/12/27 65/12/27 147/12/27 149/12/27
f 65/12/27 69/12/27 148/12/27 147/12/27
f 141/12/27 139/12/27 149/12/27 150/12/27
f 92/12/112 59/12/112 152/12/112 151/12/112
f 63/12/113 93/12/113 153/12/113 154/12/113
f 59/12/114 63/12/114 154/12/114 152/12/114
f 93/12/115 92/12/115 151/12/115 153/12/115
f 158/12/116 156/12/116 160/12/116 162/12/116
f 63/12/27 59/12/27 156/12/27 158/12/27
f 59/12/27 92/12/27 155/12/27 156/12/27
f 92/12/27 93/12/27 157/12/27 155/12/27
f 160/125/117 159/126/117 161/127/117 162/128/117
f 156/12/118 155/12/118 159/12/118 160/12/118
f 155/12/119 157/12/119 161/12/119 159/12/119
f 157/12/120 158/12/120 162/12/120 161/12/120
f 206/129/121 213/130/121 205/131/121 192/132/121 209/133/121 170/134/121
f 201/135/122 199/136/122 108/137/122 202/138/122
f 73/12/27 193/12/27 164/12/27 165/12/27
f 209/133/123 208/139/123 171/140/123 170/134/123
f 208/139/124 215/141/124 211/142/124 207/143/124 169/144/124 171/140/124
f 46/12/125 50/12/125 168/12/125 195/12/125
f 165/12/126 164/12/126 196/12/126 169/12/126
f 193/12/127 73/12/127 169/12/127 207/12/127 194/12/127
f 51/49/128 90/83/128 179/81/128 163/46/128
f 90/38/129 49/37/129 177/52/129 179/51/129
f 193/50/130 51/49/130 163/46/130 175/45/130
f 200/12/131 54/12/131 172/12/131
f 173/12/132 198/12/132 200/12/132 172/12/132
f 85/12/133 32/12/133 181/12/133 180/12/133
f 38/12/134 86/12/134 182/12/134 183/12/134
f 32/12/135 38/12/135 183/12/135 181/12/135
f 86/12/136 85/12/136 180/12/136 182/12/136
f 185/145/137 184/146/137 186/147/137 187/148/137
f 32/12/138 85/12/138 184/12/138 185/12/138
f 85/12/139 86/12/139 186/12/139 184/12/139
f 86/12/140 38/12/140 187/12/140 186/12/140
f 195/12/141 166/12/141 79/12/141 46/12/141
f 46/149/142 79/150/142 190/151/142 191/152/142
f 50/153/143 46/149/143 191/152/143 193/154/143
f 79/150/144 166/155/144 192/156/144 205/157/144 203/158/144 190/151/144
f 168/159/145 50/153/145 193/154/145 194/160/145
f 166/155/146 195/161/146 167/162/146 192/156/146
f 195/161/147 168/159/147 194/160/147 210/163/147 214/164/147 167/162/147
f 198/165/148 173/166/148 196/167/148 164/168/148
f 54/169/149 200/170/149 175/171/149 199/172/149
f 172/173/150 54/169/150 199/172/150 201/174/150 197/175/150
f 173/166/151 172/173/151 197/175/151 196/167/151
f 200/170/152 198/165/152 164/168/152 175/171/152
f 169/144/153 196/12/153 197/12/153 174/176/153
f 128/177/154 190/178/154 203/179/154 212/180/154 204/181/154
f 212/182/155 203/183/155 205/184/155 213/185/155
f 192/12/156 167/12/156 208/12/156 209/12/156
f 210/186/157 194/187/157 207/188/157 211/189/157
f 197/12/158 201/12/158 202/190/158 174/176/158
f 214/12/159 210/12/159 211/12/159 215/12/159
f 204/12/160 212/12/160 213/12/160 206/12/160
f 167/191/161 214/192/161 215/193/161 208/194/161
f 5/1/1 218/4/1 219/3/1 6/2/1
f 218/4/162 216/7/162 288/6/162 217/5/162 219/3/162
f 5/8/163 7/9/163 216/7/163 218/4/163
f 288/6/164 295/6/164 297/5/164 217/5/164
f 219/3/165 217/5/165 8/11/165 6/10/165
f 13/12/166 222/12/166 220/12/166 219/12/166 6/12/166
f 15/12/167 223/12/167 222/12/167 13/12/167
f 11/12/168 221/12/168 223/12/168 15/12/168
f 289/13/9 102/16/9 19/15/9 225/14/9
f 217/5/169 297/5/169 116/11/169 8/11/169
f 7/9/170 114/9/170 296/7/170 216/7/170
f 11/12/171 22/12/171 227/12/171 221/12/171
f 220/12/172 83/12/172 226/12/172 218/12/172 219/12/172
f 223/12/173 227/12/173 25/12/173 15/12/173
f 226/12/16 232/12/16 233/12/16 228/12/16
f 222/12/174 228/12/174 24/12/174 13/12/174
f 228/12/16 233/12/16 234/12/16 227/12/16
f 25/12/16 227/12/16 22/12/16
f 24/12/16 228/12/16 227/12/16 25/12/16
f 226/12/175 228/12/175 24/12/175 5/12/175 218/12/175
f 275/12/176 343/12/176 238/12/176 232/12/176
f 233/12/16 239/12/16 240/12/16 234/12/16
f 222/17/177 230/20/177 229/19/177 220/18/177
f 223/21/178 231/22/178 230/20/178 222/17/178
f 83/12/179 275/12/179 232/12/179 226/12/179
f 227/12/180 234/12/180 231/12/180 223/12/180
f 343/12/181 345/12/181 244/12/181 238/12/181
f 239/12/16 245/12/16 246/12/16 240/12/16
f 231/22/182 237/24/182 236/23/182 230/20/182
f 234/12/183 240/12/183 237/12/183 231/12/183
f 232/12/16 238/12/16 239/12/16 233/12/16
f 230/20/27 236/23/27 344/25/27 229/19/27
f 279/26/184 246/29/184 245/28/184 278/27/184
f 278/27/185 245/28/185 244/31/185 345/30/185
f 237/24/186 243/33/186 242/32/186 236/23/186
f 238/12/16 244/12/16 245/12/16 239/12/16
f 236/23/27 242/32/27 346/34/27 344/25/27
f 280/35/187 281/38/187 252/37/187 248/36/187
f 273/12/32 248/12/32 247/12/32 272/12/32
f 287/39/188 280/35/188 248/36/188 273/40/188
f 352/41/189 353/44/189 250/43/189 274/42/189
f 339/45/190 361/48/190 258/47/190 332/46/190
f 248/12/36 252/12/36 251/12/36 247/12/36
f 353/44/191 355/50/191 254/49/191 250/43/191
f 342/51/192 282/54/192 256/53/192 341/52/192
f 341/12/193 256/12/193 255/12/193 340/12/193
f 320/55/194 322/58/194 264/57/194 260/56/194
f 282/54/195 320/60/195 260/59/195 256/53/195
f 256/12/196 260/12/196 259/12/196 255/12/196
f 361/48/197 261/62/197 321/61/197 258/47/197
f 265/63/198 269/66/198 315/65/198 323/64/198
f 260/12/199 264/12/199 263/12/199 259/12/199
f 261/62/200 265/63/200 323/64/200 321/61/200
f 322/58/201 314/68/201 268/67/201 264/57/201
f 264/12/202 268/12/202 267/12/202 263/12/202
f 268/12/203 69/12/203 68/12/203 267/12/203
f 269/66/204 70/70/204 142/69/204 315/65/204
f 285/12/205 96/12/205 70/12/205 269/12/205
f 267/12/206 77/12/206 76/12/206 263/12/206
f 259/12/207 75/12/207 76/12/207 263/12/207
f 259/12/208 75/12/208 74/12/208 255/12/208
f 251/12/209 78/12/209 72/12/209 247/12/209
f 304/71/210 352/41/210 274/42/210 308/72/210
f 305/73/211 287/39/211 273/40/211 307/74/211
f 307/12/32 273/12/32 272/12/32 306/12/32
f 247/12/212 72/12/212 22/12/212 272/12/212
f 340/12/213 255/12/213 74/12/213 178/12/213
f 308/72/214 274/42/214 287/76/214 305/75/214
f 267/12/215 68/12/215 96/12/215 285/12/215
f 323/77/216 315/78/216 314/68/216 322/58/216
f 286/12/217 316/12/217 145/12/217 97/12/217
f 258/47/218 321/61/218 320/80/218 282/79/218
f 284/12/27 326/12/27 327/12/27 266/12/27
f 332/46/219 258/47/219 282/79/219 342/81/219
f 274/42/220 250/43/220 280/82/220 287/76/220
f 250/43/221 254/49/221 281/83/221 280/82/221
f 242/32/222 278/85/222 345/84/222 346/34/222
f 243/33/223 279/86/223 278/85/223 242/32/223
f 241/12/70 350/12/70 348/12/70 235/12/70
f 220/12/224 229/12/224 275/12/224 83/12/224
f 229/12/225 344/12/225 343/12/225 275/12/225
f 224/87/9 18/88/9 102/16/9 289/13/9
f 216/7/226 296/7/226 295/6/226 288/6/226
f 243/33/227 292/90/227 294/89/227 279/86/227
f 246/12/32 291/12/32 290/12/32 240/12/32
f 279/26/228 294/92/228 291/91/228 246/29/228
f 237/24/229 293/93/229 292/90/229 243/33/229
f 234/12/230 290/12/230 309/12/230 306/12/230 272/12/230 22/12/230 227/12/230
f 234/12/231 240/12/231 290/12/231
f 265/63/232 110/95/232 111/94/232 269/66/232
f 261/62/233 109/96/233 110/95/233 265/63/233
f 361/48/234 108/97/234 109/96/234 261/62/234
f 111/94/235 70/70/235 269/66/235
f 77/12/236 68/12/236 267/12/236
f 289/98/237 301/98/237 302/99/237 224/99/237
f 295/6/238 298/6/238 300/5/238 297/5/238
f 297/5/239 300/5/239 122/11/239 116/11/239
f 301/98/9 298/6/9 299/7/9 302/99/9
f 302/99/9 299/7/9 120/103/9 125/100/9
f 127/105/9 122/104/9 300/5/9 303/106/9
f 303/106/9 300/5/9 298/6/9 301/98/9
f 296/7/240 299/7/240 298/6/240 295/6/240
f 225/106/241 303/106/241 301/98/241 289/98/241
f 224/99/242 302/99/242 125/100/242 18/100/242
f 114/9/243 120/9/243 299/7/243 296/7/243
f 19/105/244 127/105/244 303/106/244 225/106/244
f 251/12/245 340/12/245 178/12/245 78/12/245
f 252/12/246 341/12/246 340/12/246 251/12/246
f 311/107/247 308/72/247 305/75/247 313/108/247
f 310/12/32 307/12/32 306/12/32 309/12/32
f 313/109/248 305/73/248 307/74/248 310/110/248
f 312/111/249 304/71/249 308/72/249 311/107/249
f 293/93/250 312/111/250 311/107/250 292/90/250
f 294/92/251 313/109/251 310/110/251 291/91/251
f 291/12/32 310/12/32 309/12/32 290/12/32
f 292/90/252 311/107/252 313/108/252 294/89/252
f 352/112/253 304/115/253 11/114/253 128/113/253
f 221/116/254 11/117/254 304/71/254 312/111/254
f 312/111/255 293/93/255 231/22/255 223/21/255
f 237/24/256 231/22/256 293/93/256
f 286/118/257 314/68/257 315/78/257 270/119/257
f 270/119/258 315/78/258 142/121/258 71/120/258
f 97/122/259 141/123/259 314/68/259 286/118/259
f 317/12/260 146/12/260 145/12/260 316/12/260
f 71/12/261 146/12/261 317/12/261 270/12/261
f 270/12/262 317/12/262 316/12/262 286/12/262
f 319/68/263 150/123/263 148/124/263 318/67/263
f 314/12/27 319/12/27 318/12/27 268/12/27
f 268/12/27 318/12/27 148/12/27 69/12/27
f 141/12/27 150/12/27 319/12/27 314/12/27
f 283/12/264 320/12/264 321/12/264 262/12/264
f 266/12/265 323/12/265 322/12/265 284/12/265
f 262/12/266 321/12/266 323/12/266 266/12/266
f 284/12/267 322/12/267 320/12/267 283/12/267
f 327/12/268 331/12/268 329/12/268 325/12/268
f 266/12/27 327/12/27 325/12/27 262/12/27
f 262/12/27 325/12/27 324/12/27 283/12/27
f 283/12/27 324/12/27 326/12/27 284/12/27
f 329/125/269 331/128/269 330/127/269 328/126/269
f 325/12/270 329/12/270 328/12/270 324/12/270
f 324/12/271 328/12/271 330/12/271 326/12/271
f 326/12/272 330/12/272 331/12/272 327/12/272
f 206/129/273 170/134/273 367/133/273 354/132/273 365/131/273 370/130/273
f 363/135/274 202/138/274 108/137/274 361/136/274
f 73/12/27 165/12/27 333/12/27 355/12/27
f 367/133/275 170/134/275 171/140/275 366/139/275
f 366/139/276 171/140/276 169/144/276 207/143/276 211/142/276 372/141/276
f 249/12/277 357/12/277 336/12/277 253/12/277
f 165/12/278 169/12/278 358/12/278 333/12/278
f 355/12/279 356/12/279 207/12/279 169/12/279 73/12/279
f 254/49/280 332/46/280 342/81/280 281/83/280
f 281/38/281 342/51/281 341/52/281 252/37/281
f 355/50/282 339/45/282 332/46/282 254/49/282
f 362/12/283 337/12/283 257/12/283
f 338/12/284 337/12/284 362/12/284 360/12/284
f 276/12/285 343/12/285 344/12/285 235/12/285
f 241/12/286 346/12/286 345/12/286 277/12/286
f 235/12/287 344/12/287 346/12/287 241/12/287
f 277/12/288 345/12/288 343/12/288 276/12/288
f 348/145/289 350/148/289 349/147/289 347/146/289
f 235/12/290 348/12/290 347/12/290 276/12/290
f 276/12/139 347/12/139 349/12/139 277/12/139
f 277/12/291 349/12/291 350/12/291 241/12/291
f 357/12/292 249/12/292 271/12/292 334/12/292
f 249/149/293 353/152/293 352/151/293 271/150/293
f 253/153/294 355/154/294 353/152/294 249/149/294
f 271/150/295 352/151/295 364/158/295 365/157/295 354/156/295 334/155/295
f 336/159/296 356/160/296 355/154/296 253/153/296
f 334/155/297 354/156/297 335/162/297 357/161/297
f 357/161/298 335/162/298 371/164/298 368/163/298 356/160/298 336/159/298
f 360/165/299 333/168/299 358/167/299 338/166/299
f 257/169/300 361/172/300 339/171/300 362/170/300
f 337/173/301 359/175/301 363/174/301 361/172/301 257/169/301
f 338/166/302 358/167/302 359/175/302 337/173/302
f 362/170/303 339/171/303 333/168/303 360/165/303
f 169/144/304 174/176/304 359/12/304 358/12/304
f 128/177/305 204/181/305 369/180/305 364/179/305 352/178/305
f 369/182/306 370/185/306 365/184/306 364/183/306
f 354/12/307 367/12/307 366/12/307 335/12/307
f 368/186/308 211/189/308 207/188/308 356/187/308
f 359/12/309 174/176/309 202/190/309 363/12/309
f 371/12/310 372/12/310 211/12/310 368/12/310
f 204/12/311 206/12/311 370/12/311 369/12/311
f 335/191/312 366/194/312 372/193/312 371/192/312
l 189 188
l 189 351
