# Blender 4.4.0
# www.blender.org
mtllib map_loop_mesh.mtl
o Track
v -8.958302 0.100000 1.741757
v -7.138604 0.100000 1.741757
v -9.259440 0.100000 -0.104356
v -7.480574 0.100000 -0.104356
v -9.214359 0.100000 -2.846354
v -7.440356 0.100000 -2.714898
v -8.713025 0.100000 -4.435209
v -7.069432 0.100000 -3.754792
v -7.606626 0.100000 -5.619511
v -6.491168 0.100000 -4.233827
v -4.956989 0.100000 -6.591245
v -4.278736 0.100000 -4.946757
v -1.760361 0.100000 -6.776223
v -1.960892 0.100000 -5.008696
v 0.728769 0.100000 -6.369556
v 0.652924 0.100000 -4.592307
v 4.082918 0.100000 -6.038766
v 3.746044 0.100000 -4.292088
v 7.036872 0.100000 -4.939195
v 6.032210 0.100000 -3.471196
v 8.593679 0.100000 -2.062115
v 6.972005 0.100000 -1.272765
v 8.833838 0.100000 1.720508
v 7.033635 0.100000 1.830843
v 8.170984 0.100000 3.802605
v 6.489339 0.100000 3.150710
v 5.997914 0.100000 5.244163
v 5.315314 0.100000 3.574745
v 3.185655 0.100000 5.527124
v 3.024629 0.100000 3.730748
v -1.258846 0.100000 5.815193
v -1.419872 0.100000 4.018817
v -4.917918 0.100000 5.849718
v -4.647032 0.100000 4.066598
v -7.619527 0.100000 4.841036
v -6.609405 0.100000 3.346864
v -8.741705 0.100000 2.949115
v -6.996162 0.100000 2.495265
vn -0.0000 1.0000 -0.0000
vt 0.000000 0.000000
vt 1.000000 0.000000
vt 1.000000 1.000000
vt 0.000000 1.000000
s 0
f 1/1/1 2/2/1 4/3/1 3/4/1
f 3/4/1 4/3/1 6/3/1 5/4/1
f 5/4/1 6/3/1 8/3/1 7/4/1
f 7/4/1 8/3/1 10/3/1 9/4/1
f 9/4/1 10/3/1 12/3/1 11/4/1
f 11/4/1 12/3/1 14/3/1 13/4/1
f 13/4/1 14/3/1 16/3/1 15/4/1
f 15/4/1 16/3/1 18/3/1 17/4/1
f 17/4/1 18/3/1 20/3/1 19/4/1
f 19/4/1 20/3/1 22/3/1 21/4/1
f 21/4/1 22/3/1 24/3/1 23/4/1
f 23/4/1 24/3/1 26/3/1 25/4/1
f 25/4/1 26/3/1 28/3/1 27/4/1
f 27/4/1 28/3/1 30/3/1 29/4/1
f 29/4/1 30/3/1 32/3/1 31/4/1
f 31/4/1 32/3/1 34/3/1 33/4/1
f 33/4/1 34/3/1 36/3/1 35/4/1
f 35/4/1 36/3/1 38/3/1 37/4/1
f 1/1/1 37/4/1 38/3/1 2/2/1
